<svg width="240" height="240" viewBox="0 0 240 240" fill="none" xmlns="http://www.w3.org/2000/svg">
<path d="M120 0L223.923 60V180L120 240L16.077 180V60L120 0Z" fill="#DAC3E8"/>
<mask id="mask0_626_3831" style="mask-type:alpha" maskUnits="userSpaceOnUse" x="16" y="0" width="208" height="240">
<path d="M120 0L223.923 60V180L120 240L16.077 180V60L120 0Z" fill="#45108A"/>
</mask>
<g mask="url(#mask0_626_3831)">
<rect x="120" width="154" height="240" fill="#8969C3"/>
</g>
<path fill-rule="evenodd" clip-rule="evenodd" d="M155.936 70.2044C183.289 90.1997 189.253 128.583 169.258 155.936C154.695 175.857 130.378 184.433 107.672 179.898L107.31 127.026C107.273 121.738 102.957 117.48 97.668 117.516C92.3793 117.552 88.1215 121.869 88.1578 127.158L88.469 172.522C86.7872 171.523 85.1377 170.435 83.5265 169.257C56.1738 149.262 50.2094 110.879 70.2047 83.5262C84.3465 64.1808 107.686 55.5341 129.816 59.2034L130.129 104.827C130.164 109.884 134.291 113.956 139.348 113.921C144.405 113.886 148.477 109.759 148.442 104.702L148.172 65.3637C150.838 66.7623 153.433 68.3746 155.936 70.2044Z" fill="url(#paint0_linear_626_3831)"/>
<path d="M176.946 74.1789C176.416 74.1789 176.01 74.0377 175.727 73.7552C175.445 73.455 175.304 73.0401 175.304 72.5103V68.9613H171.834C171.322 68.9613 170.925 68.8288 170.642 68.564C170.377 68.2991 170.245 67.9107 170.245 67.3986C170.245 66.8865 170.377 66.4981 170.642 66.2332C170.925 65.9684 171.322 65.8359 171.834 65.8359H175.304V62.4193C175.304 61.8896 175.445 61.4835 175.727 61.2009C176.01 60.9184 176.425 60.7772 176.972 60.7772C177.502 60.7772 177.899 60.9184 178.164 61.2009C178.447 61.4835 178.588 61.8896 178.588 62.4193V65.8359H182.057C182.57 65.8359 182.958 65.9684 183.223 66.2332C183.505 66.4981 183.647 66.8865 183.647 67.3986C183.647 67.9107 183.505 68.2991 183.223 68.564C182.958 68.8288 182.57 68.9613 182.057 68.9613H178.588V72.5103C178.588 73.0401 178.447 73.455 178.164 73.7552C177.899 74.0377 177.493 74.1789 176.946 74.1789Z" fill="white"/>
<path d="M192.946 74.1789C192.416 74.1789 192.01 74.0377 191.727 73.7552C191.445 73.455 191.304 73.0401 191.304 72.5103V68.9613H187.834C187.322 68.9613 186.925 68.8288 186.642 68.564C186.377 68.2991 186.245 67.9107 186.245 67.3986C186.245 66.8865 186.377 66.4981 186.642 66.2332C186.925 65.9684 187.322 65.8359 187.834 65.8359H191.304V62.4193C191.304 61.8896 191.445 61.4835 191.727 61.2009C192.01 60.9184 192.425 60.7772 192.972 60.7772C193.502 60.7772 193.899 60.9184 194.164 61.2009C194.447 61.4835 194.588 61.8896 194.588 62.4193V65.8359H198.057C198.57 65.8359 198.958 65.9684 199.223 66.2332C199.505 66.4981 199.647 66.8865 199.647 67.3986C199.647 67.9107 199.505 68.2991 199.223 68.564C198.958 68.8288 198.57 68.9613 198.057 68.9613H194.588V72.5103C194.588 73.0401 194.447 73.455 194.164 73.7552C193.899 74.0377 193.493 74.1789 192.946 74.1789Z" fill="white"/>
<defs>
<linearGradient id="paint0_linear_626_3831" x1="70.2047" y1="83.5262" x2="169.258" y2="155.936" gradientUnits="userSpaceOnUse">
<stop stop-color="#6C6C6C"/>
<stop offset="1" stop-color="#181818"/>
</linearGradient>
</defs>
</svg>
